<?xml version="1.0" encoding="utf-8"?>
<!-- Generator: Adobe Illustrator 24.3.0, SVG Export Plug-In . SVG Version: 6.00 Build 0)  -->
<svg version="1.1" id="Layer_1" xmlns="http://www.w3.org/2000/svg" xmlns:xlink="http://www.w3.org/1999/xlink" x="0px" y="0px"
	 viewBox="0 0 408 96" style="enable-background:new 0 0 408 96;" xml:space="preserve">
<style type="text/css">
	.st0{fill:#34D399;stroke:#34D399;stroke-width:2;stroke-linecap:round;}
</style>
<rect x="5" y="6" class="st0" width="8" height="16"/>
<rect x="13" y="6" class="st0" width="8" height="16"/>
<rect x="21" y="6" class="st0" width="8" height="16"/>
<rect x="29" y="6" class="st0" width="8" height="16"/>
<rect x="37" y="6" class="st0" width="8" height="16"/>
<rect x="45" y="6" class="st0" width="8" height="16"/>
<rect x="5" y="22" class="st0" width="8" height="16"/>
<rect x="13" y="22" class="st0" width="8" height="16"/>
<rect x="45" y="22" class="st0" width="8" height="16"/>
<rect x="53" y="22" class="st0" width="8" height="16"/>
<rect x="5" y="38" class="st0" width="8" height="16"/>
<rect x="13" y="38" class="st0" width="8" height="16"/>
<rect x="21" y="38" class="st0" width="8" height="16"/>
<rect x="29" y="38" class="st0" width="8" height="16"/>
<rect x="37" y="38" class="st0" width="8" height="16"/>
<rect x="45" y="38" class="st0" width="8" height="16"/>
<rect x="5" y="54" class="st0" width="8" height="16"/>
<rect x="13" y="54" class="st0" width="8" height="16"/>
<rect x="45" y="54" class="st0" width="8" height="16"/>
<rect x="53" y="54" class="st0" width="8" height="16"/>
<rect x="5" y="70" class="st0" width="8" height="16"/>
<rect x="13" y="70" class="st0" width="8" height="16"/>
<rect x="45" y="70" class="st0" width="8" height="16"/>
<rect x="53" y="70" class="st0" width="8" height="16"/>
<rect x="77" y="6" class="st0" width="8" height="16"/>
<rect x="85" y="6" class="st0" width="8" height="16"/>
<rect x="93" y="6" class="st0" width="8" height="16"/>
<rect x="101" y="6" class="st0" width="8" height="16"/>
<rect x="109" y="6" class="st0" width="8" height="16"/>
<rect x="117" y="6" class="st0" width="8" height="16"/>
<rect x="69" y="22" class="st0" width="8" height="16"/>
<rect x="77" y="22" class="st0" width="8" height="16"/>
<rect x="117" y="22" class="st0" width="8" height="16"/>
<rect x="125" y="22" class="st0" width="8" height="16"/>
<rect x="69" y="38" class="st0" width="8" height="16"/>
<rect x="77" y="38" class="st0" width="8" height="16"/>
<rect x="117" y="38" class="st0" width="8" height="16"/>
<rect x="125" y="38" class="st0" width="8" height="16"/>
<rect x="69" y="54" class="st0" width="8" height="16"/>
<rect x="77" y="54" class="st0" width="8" height="16"/>
<rect x="117" y="54" class="st0" width="8" height="16"/>
<rect x="125" y="54" class="st0" width="8" height="16"/>
<rect x="77" y="70" class="st0" width="8" height="16"/>
<rect x="85" y="70" class="st0" width="8" height="16"/>
<rect x="93" y="70" class="st0" width="8" height="16"/>
<rect x="101" y="70" class="st0" width="8" height="16"/>
<rect x="109" y="70" class="st0" width="8" height="16"/>
<rect x="117" y="70" class="st0" width="8" height="16"/>
<rect x="149" y="6" class="st0" width="8" height="16"/>
<rect x="157" y="6" class="st0" width="8" height="16"/>
<rect x="165" y="6" class="st0" width="8" height="16"/>
<rect x="173" y="6" class="st0" width="8" height="16"/>
<rect x="181" y="6" class="st0" width="8" height="16"/>
<rect x="189" y="6" class="st0" width="8" height="16"/>
<rect x="141" y="22" class="st0" width="8" height="16"/>
<rect x="149" y="22" class="st0" width="8" height="16"/>
<rect x="189" y="22" class="st0" width="8" height="16"/>
<rect x="197" y="22" class="st0" width="8" height="16"/>
<rect x="141" y="38" class="st0" width="8" height="16"/>
<rect x="149" y="38" class="st0" width="8" height="16"/>
<rect x="189" y="38" class="st0" width="8" height="16"/>
<rect x="197" y="38" class="st0" width="8" height="16"/>
<rect x="141" y="54" class="st0" width="8" height="16"/>
<rect x="149" y="54" class="st0" width="8" height="16"/>
<rect x="189" y="54" class="st0" width="8" height="16"/>
<rect x="197" y="54" class="st0" width="8" height="16"/>
<rect x="149" y="70" class="st0" width="8" height="16"/>
<rect x="157" y="70" class="st0" width="8" height="16"/>
<rect x="165" y="70" class="st0" width="8" height="16"/>
<rect x="173" y="70" class="st0" width="8" height="16"/>
<rect x="181" y="70" class="st0" width="8" height="16"/>
<rect x="189" y="70" class="st0" width="8" height="16"/>
<rect x="213" y="6" class="st0" width="8" height="16"/>
<rect x="221" y="6" class="st0" width="8" height="16"/>
<rect x="229" y="6" class="st0" width="8" height="16"/>
<rect x="237" y="6" class="st0" width="8" height="16"/>
<rect x="245" y="6" class="st0" width="8" height="16"/>
<rect x="253" y="6" class="st0" width="8" height="16"/>
<rect x="261" y="6" class="st0" width="8" height="16"/>
<rect x="269" y="6" class="st0" width="8" height="16"/>
<rect x="237" y="22" class="st0" width="8" height="16"/>
<rect x="245" y="22" class="st0" width="8" height="16"/>
<rect x="237" y="38" class="st0" width="8" height="16"/>
<rect x="245" y="38" class="st0" width="8" height="16"/>
<rect x="237" y="54" class="st0" width="8" height="16"/>
<rect x="245" y="54" class="st0" width="8" height="16"/>
<rect x="237" y="70" class="st0" width="8" height="16"/>
<rect x="245" y="70" class="st0" width="8" height="16"/>
<rect x="285" y="6" class="st0" width="8" height="16"/>
<rect x="293" y="6" class="st0" width="8" height="16"/>
<rect x="301" y="6" class="st0" width="8" height="16"/>
<rect x="309" y="6" class="st0" width="8" height="16"/>
<rect x="317" y="6" class="st0" width="8" height="16"/>
<rect x="325" y="6" class="st0" width="8" height="16"/>
<rect x="333" y="6" class="st0" width="8" height="16"/>
<rect x="285" y="22" class="st0" width="8" height="16"/>
<rect x="293" y="22" class="st0" width="8" height="16"/>
<rect x="285" y="38" class="st0" width="8" height="16"/>
<rect x="293" y="38" class="st0" width="8" height="16"/>
<rect x="301" y="38" class="st0" width="8" height="16"/>
<rect x="309" y="38" class="st0" width="8" height="16"/>
<rect x="317" y="38" class="st0" width="8" height="16"/>
<rect x="285" y="54" class="st0" width="8" height="16"/>
<rect x="293" y="54" class="st0" width="8" height="16"/>
<rect x="285" y="70" class="st0" width="8" height="16"/>
<rect x="293" y="70" class="st0" width="8" height="16"/>
<rect x="301" y="70" class="st0" width="8" height="16"/>
<rect x="309" y="70" class="st0" width="8" height="16"/>
<rect x="317" y="70" class="st0" width="8" height="16"/>
<rect x="325" y="70" class="st0" width="8" height="16"/>
<rect x="333" y="70" class="st0" width="8" height="16"/>
<rect x="349" y="6" class="st0" width="8" height="16"/>
<rect x="357" y="6" class="st0" width="8" height="16"/>
<rect x="365" y="6" class="st0" width="8" height="16"/>
<rect x="373" y="6" class="st0" width="8" height="16"/>
<rect x="381" y="6" class="st0" width="8" height="16"/>
<rect x="389" y="6" class="st0" width="8" height="16"/>
<rect x="349" y="22" class="st0" width="8" height="16"/>
<rect x="357" y="22" class="st0" width="8" height="16"/>
<rect x="389" y="22" class="st0" width="8" height="16"/>
<rect x="397" y="22" class="st0" width="8" height="16"/>
<rect x="349" y="38" class="st0" width="8" height="16"/>
<rect x="357" y="38" class="st0" width="8" height="16"/>
<rect x="389" y="38" class="st0" width="8" height="16"/>
<rect x="397" y="38" class="st0" width="8" height="16"/>
<rect x="349" y="54" class="st0" width="8" height="16"/>
<rect x="357" y="54" class="st0" width="8" height="16"/>
<rect x="389" y="54" class="st0" width="8" height="16"/>
<rect x="397" y="54" class="st0" width="8" height="16"/>
<rect x="349" y="70" class="st0" width="8" height="16"/>
<rect x="357" y="70" class="st0" width="8" height="16"/>
<rect x="365" y="70" class="st0" width="8" height="16"/>
<rect x="373" y="70" class="st0" width="8" height="16"/>
<rect x="381" y="70" class="st0" width="8" height="16"/>
<rect x="389" y="70" class="st0" width="8" height="16"/>
</svg>
